<?xml version="1.0" encoding="utf-8"?>
<!-- Generator: Adobe Illustrator 16.0.0, SVG Export Plug-In . SVG Version: 6.00 Build 0)  -->
<!DOCTYPE svg PUBLIC "-//W3C//DTD SVG 1.1//EN" "http://www.w3.org/Graphics/SVG/1.1/DTD/svg11.dtd">
<svg version="1.1" id="图层_1" xmlns="http://www.w3.org/2000/svg" xmlns:xlink="http://www.w3.org/1999/xlink" x="0px" y="0px"
	 width="200px" height="200px" viewBox="0 0 200 200" enable-background="new 0 0 200 200" xml:space="preserve">
<g>
	<path d="M142.762,155.631c-1.307,0.735-2.503,1.638-3.754,2.466c-32.479,21.622-74.197,14.574-97.732-16.508
		c-21.346-28.191-18.089-69.578,7.435-94.052c25.578-24.53,63.671-27.144,92.636-6.349c3.439,2.466,6.293,2.355,8.15-0.313
		c1.749-2.485,0.939-5.521-2.115-7.729c-18.953-13.636-40.209-18.77-62.935-14.299c-29.922,5.87-51.452,23.371-61.665,52.225
		c-11.409,32.222-4.545,61.334,19.58,85.827c15.494,15.733,34.743,22.855,56.624,23.315c11.021,0.184,21.678-1.767,31.651-6.294
		c6.036-2.742,11.704-6.403,17.353-9.918c2.688-1.675,3.146-4.638,1.693-6.92C148.135,154.637,145.577,154.066,142.762,155.631z"/>
	<path d="M147.289,86.273c-0.02,3.57,2.447,6.165,5.943,6.202c3.57,0.056,6.201-2.355,6.331-5.815
		c0.146-3.662-2.411-6.367-6.092-6.422C150.104,80.201,147.307,82.924,147.289,86.273z"/>
	<path d="M175.591,92.199c3.423-0.092,6.165-2.871,6.146-6.202c-0.019-3.514-2.668-6.275-6.035-6.275
		c-3.533,0-6.386,2.852-6.386,6.385C169.315,89.328,172.352,92.292,175.591,92.199z"/>
	<path d="M164.531,67.503c3.533,0.037,6.312-2.76,6.312-6.33c-0.019-3.294-2.907-6.055-6.257-5.981
		c-3.606,0.073-6.127,2.612-6.054,6.091C158.588,64.872,161.108,67.467,164.531,67.503z"/>
	<path d="M175.72,105.762c-3.662,0.018-6.533,2.962-6.458,6.624c0.073,3.275,2.925,5.833,6.44,5.815
		c3.367-0.037,6.184-2.89,6.091-6.165C181.7,108.688,178.848,105.762,175.72,105.762z"/>
	<path d="M153.306,106.166c-3.386-0.073-6.257,2.668-6.293,6.018c-0.037,3.275,2.889,6.404,5.999,6.386
		c3.404-0.019,6.164-2.705,6.256-6.092C159.379,109.11,156.655,106.239,153.306,106.166z"/>
	<path d="M164.219,130.438c-3.404,0.073-5.853,2.778-5.833,6.403c0.02,3.387,2.814,6.092,6.238,6.018
		c3.293-0.072,6.274-3.054,6.183-6.201C170.695,133.198,167.659,130.346,164.219,130.438z"/>
	<path d="M82.367,98.934c0.11,8.999,7.582,16.286,16.653,16.23c9.018-0.055,16.157-7.269,16.141-16.322
		c-0.02-9.053-7.399-16.617-16.323-16.69C89.653,82.042,82.274,89.567,82.367,98.934z"/>
	<path d="M125.924,98.695c-0.019,3.349,2.724,6.091,6.164,6.127c3.295,0.037,5.889-2.502,5.981-5.852
		c0.093-3.626-2.3-6.165-5.889-6.294C128.776,92.567,125.961,95.291,125.924,98.695z"/>
</g>
</svg>
