<?xml version="1.0" encoding="utf-8"?>
<!-- Generator: Adobe Illustrator 16.0.0, SVG Export Plug-In . SVG Version: 6.00 Build 0)  -->
<!-- <!DOCTYPE svg PUBLIC "-//W3C//DTD SVG 1.1//EN" "http://www.w3.org/Graphics/SVG/1.1/DTD/svg11.dtd"> -->
<svg version="1.1" id="图层_1" xmlns="http://www.w3.org/2000/svg" xmlns:xlink="http://www.w3.org/1999/xlink" x="0px" y="0px"
	 width="200px" height="200px" viewBox="0 0 200 200" enable-background="new 0 0 200 200" xml:space="preserve">
<path d="M145.41,159.121c-1.387,0.781-2.656,1.738-3.984,2.617c-34.473,22.949-78.75,15.469-103.73-17.52
	c-22.656-29.922-19.199-73.848,7.891-99.824c27.148-26.035,67.578-28.809,98.32-6.738c3.652,2.617,6.68,2.5,8.652-0.332
	c1.855-2.637,0.996-5.859-2.246-8.203c-20.117-14.473-42.676-19.922-66.797-15.176c-31.758,6.23-54.609,24.805-65.449,55.43
	c-12.109,34.199-4.824,65.098,20.781,91.094c16.445,16.699,36.875,24.258,60.098,24.746c11.699,0.195,23.008-1.875,33.594-6.68
	c6.406-2.91,12.422-6.797,18.418-10.527c2.852-1.777,3.34-4.922,1.797-7.344C151.113,158.066,148.398,157.461,145.41,159.121z"/>
<path d="M81.309,98.945c0.117,9.551,8.047,17.285,17.676,17.227c9.57-0.059,17.148-7.715,17.129-17.324s-7.852-17.637-17.324-17.715
	C89.043,81.016,81.211,89.004,81.309,98.945z M186.836,112.852c-0.098-3.555-3.125-6.66-6.445-6.66
	c-3.887,0.02-6.934,3.145-6.855,7.031c0.078,3.477,3.105,6.191,6.836,6.172C183.945,119.355,186.934,116.328,186.836,112.852z
	 M168.516,65.586c3.75,0.039,6.699-2.93,6.699-6.719c-0.02-3.496-3.086-6.426-6.641-6.348c-3.828,0.078-6.504,2.773-6.426,6.465
	C162.207,62.793,164.883,65.547,168.516,65.586z M180.254,91.797c3.633-0.098,6.543-3.047,6.523-6.582
	c-0.02-3.73-2.832-6.66-6.406-6.66c-3.75,0-6.777,3.027-6.777,6.777C173.594,88.75,176.816,91.895,180.254,91.797z M168.184,132.383
	c-3.613,0.078-6.211,2.949-6.191,6.797c0.02,3.594,2.988,6.465,6.621,6.387c3.496-0.078,6.66-3.242,6.563-6.582
	C175.059,135.313,171.836,132.285,168.184,132.383z M150.215,85.508c-0.02,3.789,2.598,6.543,6.309,6.582
	c3.789,0.059,6.582-2.5,6.719-6.172c0.156-3.887-2.559-6.758-6.465-6.816C153.203,79.063,150.234,81.953,150.215,85.508z
	 M156.602,106.621c-3.594-0.078-6.641,2.832-6.68,6.387c-0.039,3.477,3.066,6.797,6.367,6.777c3.613-0.02,6.543-2.871,6.641-6.465
	C163.047,109.746,160.156,106.699,156.602,106.621z M127.539,98.691c-0.02,3.555,2.891,6.465,6.543,6.504
	c3.496,0.039,6.25-2.656,6.348-6.211c0.098-3.848-2.441-6.543-6.25-6.68C130.566,92.188,127.578,95.078,127.539,98.691z"/>
</svg>
