<?xml version="1.0" encoding="utf-8"?>
<!-- Generator: Adobe Illustrator 16.0.0, SVG Export Plug-In . SVG Version: 6.00 Build 0)  -->
<!DOCTYPE svg PUBLIC "-//W3C//DTD SVG 1.1//EN" "http://www.w3.org/Graphics/SVG/1.1/DTD/svg11.dtd">
<svg version="1.1" id="图层_1" xmlns="http://www.w3.org/2000/svg" xmlns:xlink="http://www.w3.org/1999/xlink" x="0px" y="0px"
	 width="200px" height="200px" viewBox="0 0 200 200" enable-background="new 0 0 200 200" xml:space="preserve">
<path fill="#333333" d="M171.672,169.637L101.4,199.91l-71.086-28.273L0.042,101.364l28.273-71.085L98.587,0.006l71.085,28.273
	l30.272,70.272L171.672,169.637z M167.996,95.584c-1,0-12.656,0.342-25.738,0.916c-0.735-8.92-4.275-17.379-10.115-24.164
	c6.353-5.79,12.646-11.644,18.881-17.559c1.659-1.652,1.664-4.335,0.013-5.994c-0.004-0.004-0.008-0.008-0.013-0.012
	c-1.651-1.659-4.334-1.664-5.993-0.012c-0.004,0.004-0.008,0.008-0.012,0.012l-17.532,18.894c-6.817-5.809-15.299-9.31-24.229-9.999
	c0.574-13.082,0.922-24.738,0.922-25.738c-0.002-2.355-1.912-4.262-4.267-4.261c-2.353,0.002-4.259,1.909-4.261,4.261
	c0,1,0.348,12.656,0.896,25.738c-8.939,0.7-17.424,4.224-24.229,10.063c-5.781-6.318-11.617-12.586-17.507-18.803
	c-1.651-1.659-4.335-1.664-5.993-0.012c-0.004,0.004-0.008,0.008-0.012,0.012c-1.658,1.651-1.664,4.335-0.012,5.993
	c0.004,0.004,0.008,0.008,0.012,0.012c0.716,0.69,9.179,8.676,18.83,17.468c-5.849,6.818-9.374,15.323-10.063,24.28
	c-8.533-0.387-17.07-0.69-25.609-0.91c-2.355,0-4.264,1.909-4.264,4.264s1.909,4.263,4.264,4.263c0.993,0,12.579-0.348,25.609-0.909
	c0.703,8.954,4.226,17.454,10.063,24.28c-6.303,5.755-12.55,11.571-18.739,17.449c-1.656,1.643-1.667,4.318-0.023,5.975
	c0.008,0.008,0.016,0.016,0.023,0.023c1.644,1.657,4.319,1.668,5.976,0.024c0.008-0.008,0.016-0.017,0.023-0.024
	c0.71-0.703,8.644-9.141,17.449-18.752c6.843,5.832,15.365,9.334,24.331,9.999c-0.387,8.528-0.689,17.062-0.909,25.596
	c0,2.354,1.909,4.264,4.264,4.264c2.354,0,4.264-1.909,4.264-4.264c0-0.993-0.335-12.591-0.909-25.608
	c8.955-0.729,17.445-4.289,24.241-10.166c5.779,6.32,11.614,12.588,17.507,18.803c1.651,1.658,4.335,1.664,5.993,0.012
	c0.004-0.004,0.009-0.008,0.013-0.012c1.656-1.643,1.667-4.318,0.023-5.975c-0.008-0.008-0.016-0.016-0.023-0.024
	c-0.703-0.703-9.18-8.708-18.816-17.526c5.807-6.832,9.291-15.336,9.946-24.279c13.069,0.574,24.726,0.922,25.726,0.922
	c2.353-0.092,4.186-2.073,4.094-4.426C172.004,97.455,170.221,95.671,167.996,95.584z M110.05,107.719
	c1.413-1.828,2.3-4.008,2.562-6.303c6.069,0.58,14.693,1.077,23.338,1.503c-0.596,7.455-3.494,14.54-8.296,20.274
	C121.889,117.919,116.02,112.76,110.05,107.719z M109.94,92.05c5.954-5.007,11.8-10.141,17.532-15.397
	c4.846,5.688,7.804,12.741,8.463,20.184c-7.788,0.338-15.569,0.837-23.338,1.497C112.296,96.037,111.377,93.865,109.94,92.05z
	 M101.438,87.341c0.574-6.044,1.077-14.669,1.497-23.313c7.447,0.614,14.52,3.531,20.234,8.347
	c-5.258,5.742-10.404,11.585-15.436,17.526C105.916,88.477,103.734,87.59,101.438,87.341z M108.592,93.166l2.277,5.334
	c0.116,0.91,0.129,1.819,0.013,2.742l-2.187,5.373l-1.909,1.961l-5.335,2.264c-0.909,0.116-1.819,0.129-2.741,0.014l-5.374-2.193
	l-1.948-1.903l-2.264-5.341c-0.121-0.908-0.125-1.827-0.013-2.735l2.181-5.38l1.903-1.941l5.341-2.264
	c0.903-0.116,1.813-0.129,2.735-0.013l5.38,2.174L108.592,93.166z M76.636,72.427c5.708-4.835,12.781-7.771,20.236-8.398
	c0.419,8.657,0.922,17.281,1.497,23.325c-2.293,0.299-4.461,1.218-6.27,2.658C87.063,84.047,81.907,78.184,76.636,72.427z
	 M87.37,98.513c-7.8-0.665-15.614-1.168-23.435-1.509c0.62-7.468,3.556-14.556,8.399-20.274C78.1,82,83.966,87.159,89.931,92.205
	C88.521,94.036,87.635,96.217,87.37,98.513z M90.06,107.854c-4.709,3.909-11.224,9.683-17.662,15.526
	c-4.874-5.71-7.834-12.806-8.463-20.287c7.826-0.341,15.644-0.845,23.448-1.509C87.68,103.822,88.563,105.977,90.06,107.854z
	 M98.562,112.568c-0.581,6.09-1.09,14.779-1.516,23.461c-7.481-0.598-14.589-3.516-20.333-8.347
	c5.844-6.45,11.618-12.966,15.546-17.675C94.13,111.466,96.304,112.311,98.562,112.568z M123.364,127.515
	c-5.692,4.88-12.768,7.856-20.235,8.515c-0.342-7.83-0.845-15.651-1.51-23.461c2.238-0.296,4.387-1.18,6.27-2.664
	C112.928,115.879,118.087,121.75,123.364,127.515z"/>
</svg>
