<?xml version="1.0" encoding="utf-8"?>
<!-- Generator: Adobe Illustrator 16.0.0, SVG Export Plug-In . SVG Version: 6.00 Build 0)  -->
<!DOCTYPE svg PUBLIC "-//W3C//DTD SVG 1.1//EN" "http://www.w3.org/Graphics/SVG/1.1/DTD/svg11.dtd">
<svg version="1.1" id="图层_1" xmlns="http://www.w3.org/2000/svg" xmlns:xlink="http://www.w3.org/1999/xlink" x="0px" y="0px"
	 width="200px" height="200px" viewBox="0 0 200 200" enable-background="new 0 0 200 200" xml:space="preserve">
<g>
	<path fill="#C0C0C0" d="M185.9,182.9c-0.2-0.301-5.101-7.7-12.801-14.4c-3.1-2.7-6.6-5.2-9.699-7.5l-0.2-0.1
		c-2.3-1.7-5.7-4.2-7.101-5.5c1-0.101,2.301-0.2,3.7-0.301h0.7c9.5-0.6,18.3-1.5,20.5-5.3c0.7-1.3,0.8-2.7,0.3-4.1
		c-1.6-5.2-10.6-12.5-23.1-18.601c-4.3-2.199-8.8-4-13.3-5.6l-0.2-0.1c-2.9-1-3.8-1.301-5.3-3.2c-4.7-5.9-9.2-15.8-13.9-26.4
		c-6.2-13.8-12.6-28-20.9-36.7c-0.6-0.6-1.3-1.5-2.3-2.6l-0.1-0.2c-5-5.9-14.4-17-25.6-21.5c-12.2-4.9-16.5-5.9-21.9-7L52,23
		c-2.3-0.5-4.8-2.1-7.7-3.9c-5-3.1-11.3-6.9-19.5-7.6c-6.1-0.5-9.1,3.4-10.3,5.6c-2.5,4.7-2.4,11-0.6,13.7c1.2,2,3.2,4.4,5.1,6.8
		l0.2,0.2c2.2,2.7,4.4,5.5,5.7,7.7c1.5,2.5,3.8,9.3,5.8,15.2l0.1,0.2c1.6,4.8,3.1,9.3,4.2,11.6c0.7,1.4,1.6,2.9,2.5,4.3l0.1,0.1
		c1.3,2.2,2.9,4.6,3.1,6.4c0.4,2.5-0.4,4.6-1.4,7.5c-1.7,4.6-4,10.9-2.8,22.601c1.6,16.5,11.5,27,16.9,25.699
		c5.7-1.3,8.3-9.399,8.4-14.199c0-0.601,0.1-1.801,0.1-2.7c0.4,0.8,1,2,1.4,2.7c1.3,2.8,2.9,6.199,5.3,8.899
		c8,9.2,18.9,18.101,20.2,19.101l4.9,2.699l-2.9-4.199l-14.4-19c-3.6-5.7-6.7-13.101-8.5-17.5l-0.5-1.101
		c-0.1-0.399-0.3-0.8-0.4-1.2V112.4c-0.8-2.4-4-6.301-6.2-6.5c-1.7-0.2-5.8,5.6-6.9,12c-0.3,1.699-0.5,6.3-0.5,7.699
		c-0.1,1-1.4,2.301-1.7,2.9c-1.7-0.8-6.6-9.4-6.1-21.8c0.2-4.4,1.4-9.1,2.6-13.3c1.5-5.7,2.9-10.5,1.4-14c-0.8-1.8-1-2.2-1.7-3.4
		h-0.2c-0.6-1-1.8-3-4.7-8.4c-1.3-2.5-2.7-6.7-4.1-11.2c-1.7-5.6-3.6-11.5-5.7-14.7c-2.8-4.3-5.2-7.5-6.9-9.9
		c-4.6-6.3-5.4-7.8-4.3-10c0.6-1.3,1.9-2,3.3-2c3.8,0,9.3,3.7,14.2,6.9c3.3,2.2,6.2,4.1,8.3,4.7c1.9,0.6,3.7,0.9,5.8,1.3
		c4.3,0.8,9.2,1.8,17.4,5.7c8,3.9,20.4,16.6,26.7,24.3c6.5,7.8,14.1,23.4,20.899,37.2c3.801,7.8,7.4,15.2,10.2,19.9l0.5,0.8
		c1,1.7,2.3,4.101,4.7,5.5c3.3,1.9,7.2,3.4,11.3,5c2.7,1,5.4,2,8,3.2c8.5,3.9,14.2,9.4,14.5,10.601c-0.5,0.1-1,0.199-1.5,0.199
		c-0.6,0-1.2,0-1.899-0.1H163.8c-1.3-0.1-2.6-0.1-3.899,0c-4.301,0.3-14.601,1.6-16.2,6.7c-1.101,3.5,2.5,10.1,9.6,14.399
		c14,8.5,30.601,18.801,30.7,18.9l5.8,3.6L185.9,182.9z"/>
	<path fill="#C0C0C0" d="M54.7,42.9c-2.7,0-4.8,1.7-4.9,1.7l-1.1,0.9l1.2,0.8c0,0,2.3,1.6,4.1,3.4c1.6,1.7,2.6,5.2,2.6,5.3l0.4,1.4
		l1.2-0.8c0.7-0.5,3.1-2.4,3.5-5.2c0.2-1.8-0.4-3.5-1.6-4.8C58.8,43.9,56.8,42.9,54.7,42.9z"/>
</g>
</svg>
