<?xml version="1.0" encoding="utf-8"?>
<!-- Generator: Adobe Illustrator 16.0.0, SVG Export Plug-In . SVG Version: 6.00 Build 0)  -->
<!DOCTYPE svg PUBLIC "-//W3C//DTD SVG 1.1//EN" "http://www.w3.org/Graphics/SVG/1.1/DTD/svg11.dtd">
<svg version="1.1" id="图层_1" xmlns="http://www.w3.org/2000/svg" xmlns:xlink="http://www.w3.org/1999/xlink" x="0px" y="0px"
	 width="153px" height="154.3px" viewBox="0 0 153 154.3" enable-background="new 0 0 153 154.3" xml:space="preserve">
<path d="M50.5,109.1l-0.2,3.1l26.5,11.5l-0.3-3.3L50.5,109.1z M75.2,104.2L51.8,94l-0.3,3.9l0.2-0.4l23.8,10.3L75.2,104.2z
	 M50.9,105.2l25.3,11l-0.4-4.2l-24.6-10.7L50.9,105.2z M52.1,90.2l22.7,9.9l-1.5-18.2h3.2V76h-3.2V62.2h2v-2.8L64.2,47.9v-2.6h-1.9
	v2.6L50,59.3v2.8h2.2V76H50v5.8h2.8L52.1,90.2z M54.8,62.2h15.8V76h-4v-6.4c0-2-1.6-3.7-3.7-3.7c-2,0-3.7,1.6-3.7,3.7V76h-4.5
	L54.8,62.2L54.8,62.2z M78.7,11.3c-37.7,0-68.3,30.6-68.3,68.3s30.6,68.3,68.3,68.3S147,117.3,147,79.6S116.4,11.3,78.7,11.3z
	 M78.7,135.3c-0.3,0-0.6,0-0.9,0l-0.6-7.4L49.9,116L49,126.8c-15.6-9.9-26-27.3-26-47.2c0-30.8,25-55.8,55.8-55.8
	c11.3,0,21.8,3.4,30.6,9.2L76.8,66.3l44.7-22.5c2.3,2.8,4.4,5.8,6.2,9.1l-48,15.3h53.7c0.5,2.5,0.9,5.1,1,7.7l-55.6-3.2L133.1,92
	C127.4,116.8,105.3,135.3,78.7,135.3z"/>
</svg>
