<?xml version="1.0" standalone="no"?><!DOCTYPE svg PUBLIC "-//W3C//DTD SVG 1.1//EN" "http://www.w3.org/Graphics/SVG/1.1/DTD/svg11.dtd"><svg t="1546499514423" class="icon" style="" viewBox="0 0 1024 1024" version="1.1" xmlns="http://www.w3.org/2000/svg" p-id="1587" xmlns:xlink="http://www.w3.org/1999/xlink" width="200" height="200"><defs><style type="text/css">@font-face { font-family: yourDictFontAwesome; src: url("chrome-extension://dmckmhkomggmpalekfadjibdcknieljf/lib/fontawesome-webfont.ttf") format("truetype"); font-weight: normal; font-style: normal; }
</style></defs><path d="M998.59778 597.412319S878.120008 140.636817 876.888343 135.588025c-5.258657-21.39587-30.712483-51.981058-71.085619-51.981058H222.248351c-43.484981 0-64.746675 30.917187-77.462407 54.071103-2.647391 4.814845-119.404367 459.732529-119.404367 459.732529a30.636794 30.636794 0 0 0-1.008038 7.777032V865.467923c0 24.715859 10.630847 45.700601 29.931511 59.085491 14.988118 10.40206 34.957941 15.894665 57.748894 15.894665h799.868029c22.789233 0 42.760776-5.492604 57.752334-15.894665 19.295503-13.38317 29.929791-34.369632 29.929791-59.085491V605.191072a30.795052 30.795052 0 0 0-1.006318-7.778753z m-60.083208 268.057325c0 6.352705-2.119289 7.816597-3.660589 8.886562-2.169174 1.506897-8.743786 5.005787-22.93201 5.005787H112.055665c-14.191665 0-20.766276-3.49889-22.93201-5.005787-1.543021-1.066525-3.655429-2.533857-3.655429-6.849843v-229.732949l853.046346-2.036719v229.732949zM193.539903 183.297822c2.406562-4.09408 5.079756-38.556603 28.706728-38.597888h583.554373c26.119544 0.041285 26.454983 34.512408 28.64308 38.343298l105.157656 391.603937H86.405736l107.134167-391.349347z m-18.720956 632.224043c16.868299 0 30.545623-13.673884 30.545623-30.543903v-58.928953c0-16.87518-13.679045-30.547343-30.545623-30.547343-16.868299 0-30.545623 13.672164-30.545623 30.547343v58.928953c0.00172 16.871739 13.677324 30.543903 30.545623 30.543903z m125.882647 1.016639c16.871739 0 30.547343-13.673884 30.547343-30.545623V727.060488c0-16.863138-13.679045-30.543903-30.547343-30.543903s-30.545623 13.680765-30.545623 30.543903v58.932393c0 16.873459 13.677324 30.545623 30.545623 30.545623zM571.469956 418.30835h-56.931798l-11.324089 31.80481h-47.940303l60.852138-182.735315h56.365852l61.860176 183.755395h-50.539528l-12.342448-32.82489z m-8.957091-36.351305s-13.4709-35.092116-18.731277-55.108384h-1.059644c-4.739156 20.54609-19.228416 55.108384-19.228416 55.108384h39.019337z m135.152814-52.17716h-62.106165v-63.4204h184.864926v63.4204h-61.354438v120.333275h-61.404323V329.779885z m-428.03093-62.063161h63.212256l43.636358 94.78828 13.252435 27.10866 1.319395 1.016639c-2.633629-20.807561-0.34404-33.655748-0.344041-57.098658v-65.814921h62.083803v182.733596H387.545981l-43.373168-80.307621-16.45545-42.642082h0.719044c2.107247 21.865485 1.252307 48.435722 1.252307 72.143543v50.80272h-60.053965V267.716724z" p-id="1588"></path></svg>