<?xml version="1.0" encoding="utf-8"?>
<!-- Generator: Adobe Illustrator 16.0.0, SVG Export Plug-In . SVG Version: 6.00 Build 0)  -->
<!DOCTYPE svg PUBLIC "-//W3C//DTD SVG 1.1//EN" "http://www.w3.org/Graphics/SVG/1.1/DTD/svg11.dtd">
<svg version="1.1" id="图层_1" xmlns="http://www.w3.org/2000/svg" xmlns:xlink="http://www.w3.org/1999/xlink" x="0px" y="0px"
	 width="200px" height="200px" viewBox="0 0 200 200" enable-background="new 0 0 200 200" xml:space="preserve">
<path d="M42.34,143.938c-5.622,0-10.719-4.666-10.719-10.334c0-5.666,4.604-10.355,10.727-10.355c6.149,0,10.769,4.665,10.769,10.35
	s-5.113,10.336-10.728,10.336l-0.05,0.01L42.34,143.938L42.34,143.938z M173.976,87.575c-1.11-8.269-6.166-15.001-12.824-20.172
	l-2.59-2.084l-2.088,2.585c-4.062,4.666-5.672,12.947-5.179,19.129c0.492,4.685,1.974,9.33,4.554,12.947
	c-2.088,1.088-4.669,2.086-6.658,3.143c-4.463,1.447-9.124,2.15-13.81,2.084H3.508l-0.494,3.083
	c-1.022,10.071,0.57,20.233,4.62,29.511l2.005,3.621v0.501c12.331,20.694,34.279,30.005,58.191,30.005
	c45.987,0,83.707-20.169,101.586-63.617c11.715,0.515,23.548-2.584,29.104-13.971L200,91.759l-2.467-1.562
	c-6.658-4.114-15.783-4.665-23.428-2.581l-0.152,0.016l0.019-0.058L173.976,87.575L173.976,87.575z M108.143,79.306H88.18v20.168
	h19.975V79.289l-0.012,0.025V79.306z M108.143,53.946H88.18v20.168h19.975V53.967l-0.012-0.025V53.946z M108.143,28.073H88.18
	v20.168h19.975V28.073H108.143z M132.557,79.306h-19.844v20.168h19.894V79.289l-0.057,0.025L132.557,79.306z M58.583,79.306H38.748
	v20.168h19.909V79.289l-0.082,0.025L58.583,79.306z M83.494,79.306H63.766v20.168h19.844V79.289l-0.123,0.025L83.494,79.306z
	 M33.922,79.306h-19.7v20.168h19.963V79.289l-0.247,0.025L33.922,79.306z M83.494,53.946H63.766v20.168h19.844V53.967l-0.123-0.025
	h0.008V53.946z M58.464,53.946H38.775v20.168h19.84V53.967l-0.132-0.025h-0.025L58.464,53.946z"/>
</svg>
