<?xml version="1.0" standalone="no"?><!DOCTYPE svg PUBLIC "-//W3C//DTD SVG 1.1//EN" "http://www.w3.org/Graphics/SVG/1.1/DTD/svg11.dtd"><svg t="1546503661966" class="icon" style="" viewBox="0 0 1024 1024" version="1.1" xmlns="http://www.w3.org/2000/svg" p-id="12867" xmlns:xlink="http://www.w3.org/1999/xlink" width="200" height="200"><defs><style type="text/css">@font-face { font-family: yourDictFontAwesome; src: url("chrome-extension://dmckmhkomggmpalekfadjibdcknieljf/lib/fontawesome-webfont.ttf") format("truetype"); font-weight: normal; font-style: normal; }
</style></defs><path d="M702.421333 465.770667c29.546667 62.954667 109.76 94.72 192.128 76.394666a382.570667 382.570667 0 0 1-56.149333 169.472c-59.989333-67.093333-151.253333-86.442667-212.48-41.962666-60.970667 44.288-70.954667 136.448-26.368 213.994666a385.706667 385.706667 0 0 1-88.277333 10.176 385.706667 385.706667 0 0 1-88.277334-10.176c44.586667-77.546667 34.602667-169.706667-26.346666-213.973333-61.248-44.501333-152.512-25.173333-212.48 41.941333A382.570667 382.570667 0 0 1 128 542.165333c88.405333 19.648 174.293333-18.346667 197.781333-90.666666 23.68-72.896-24.384-154.816-108.650666-190.464A385.728 385.728 0 0 1 363.648 153.6c7.04 85.76 62.954667 153.898667 133.184 162.197333-52.266667 18.773333-154.709333 100.202667-167.445333 130.816-14.442667 34.730667 36.416 195.712 70.826666 218.026667 34.368 22.293333 197.568 21.205333 229.12 0 27.52-18.517333 71.509333-143.850667 73.088-198.869333zM630.144 243.84c15.722667-25.664 26.005333-56.576 28.757333-90.218667a385.749333 385.749333 0 0 1 146.517334 107.434667c-30.997333 13.12-57.088 32.490667-76.522667 55.36 45.994667 38.144 82.858667 75.84 91.712 97.898667 23.082667 57.642667-64.746667 324.522667-116.8 359.552-52.053333 34.986667-321.216 36.778667-377.92 0-56.725333-36.8-140.586667-302.293333-116.8-359.552C232.896 357.034667 446.933333 192.085333 514.837333 192.085333c24.576 0 68.352 21.525333 115.306667 51.733334z m-115.370667 68.053333c-41.173333 0-170.944 100.053333-185.386666 134.741334-14.442667 34.730667 36.416 195.712 70.826666 218.026666 34.368 22.293333 197.568 21.205333 229.12 0 31.573333-21.248 84.821333-183.061333 70.826667-218.026666-13.994667-34.944-144.213333-134.72-185.386667-134.72z m-128.490666 171.562667a49.472 49.472 0 1 1 98.944 0 49.472 49.472 0 0 1-98.944 0z m153.877333 0a49.472 49.472 0 1 1 98.944 0 49.472 49.472 0 0 1-98.944 0z" p-id="12868"></path></svg>