<?xml version="1.0" encoding="utf-8"?>
<!-- Generator: Adobe Illustrator 16.0.0, SVG Export Plug-In . SVG Version: 6.00 Build 0)  -->
<!DOCTYPE svg PUBLIC "-//W3C//DTD SVG 1.1//EN" "http://www.w3.org/Graphics/SVG/1.1/DTD/svg11.dtd">
<svg version="1.1" id="图层_1" xmlns="http://www.w3.org/2000/svg" xmlns:xlink="http://www.w3.org/1999/xlink" x="0px" y="0px"
	 width="199px" height="205px" viewBox="0 0 199 205" enable-background="new 0 0 199 205" xml:space="preserve">
<path d="M92.7,93.4c0,6.3-5.1,11.4-11.4,11.4c-6.3,0-11.4-5.1-11.4-11.4C69.9,87.1,75,82,81.3,82C87.4,82,92.7,87.1,92.7,93.4
	L92.7,93.4z M107.3,93.4c0,6.3,5.1,11.4,11.4,11.4c6.4,0,11.4-5.1,11.4-11.4c0-6.3-5-11.4-11.4-11.4l0,0
	C112.4,82,107.3,87.1,107.3,93.4z"/>
<path d="M185.1,105.8c-0.8,0-1.6,0-2.4,0c-5.1,0-10-1.2-14.5-3.5c1.4-8.6,2-17.1,2-25.7c-4.9-7.1-10.4-13.6-16.5-19.8
	c2.6-5.1,6.7-9.4,11.6-12.4l2.2-1.4l-1.6-1.8c-8.3-9.6-18.9-17.1-30.5-22.2l-2.2-1l-0.6,2.4c-1.4,5.7-4.3,10.8-8.3,15.1
	c-7.5-4.1-15.7-7.3-23.8-9.8c-8.4,2.6-16.4,5.8-23.9,9.9c-4.1-4.3-6.9-9.4-8.3-15.1l-0.6-2.4l-2.6,1.2C53.4,24.4,43,32.1,34.4,41.5
	l-1.6,1.8l2,1.2c4.9,3.1,9,7.4,11.7,12.5C40.3,62.9,34.8,69.6,30,76.5c-0.2,8.6,0.4,17.3,1.8,25.9c-4.5,2.2-9.4,3.3-14.5,3.3
	c-0.8,0-1.6,0-2.4,0l-2.6-0.2l0.2,2.4c1.2,12.6,5.3,25,11.8,36l1.2,2.2l1.8-1.6c4.5-3.7,9.8-6.3,15.5-7.3
	c3.7,7.5,8.1,14.9,13.2,21.6c8.1,2.9,16.7,4.9,25.2,6.1c0.8,5.9,0.2,11.8-2,17.3l-1,2.2l2.4,0.6c6.3,1.4,12.6,2,18.9,2l18.9-2
	l2.4-0.6l-1-2.2c-2.2-5.5-2.9-11.4-2-17.3c8.6-1.2,16.9-3.3,25-6.1c5.1-6.7,9.6-14.1,13.2-21.8c5.7,1,11.2,3.5,15.7,7.3l1.8,1.6
	l1.2-2.2c6.5-11,10.6-23.2,11.8-35.8l0.2-2.4L185.1,105.8z M126.9,136.6c-17.7,4.9-36.4,4.9-54.2,0c-4.9-7.6-8.7-15.9-11.6-24.5
	c-2.9-8.8-4.5-17.7-4.9-26.7c5.7-7.1,12.2-13.2,19.5-18.7c7.3-5.3,15.5-9.8,24-13c8.5,3.3,16.5,7.5,23.8,13
	c7.3,5.3,14,11.6,19.8,18.7c-0.4,9-2,17.9-4.9,26.7C135.8,120.7,132,128.8,126.9,136.6L126.9,136.6z"/>
</svg>
