<?xml version="1.0" encoding="utf-8"?>
<!-- Generator: Adobe Illustrator 16.0.0, SVG Export Plug-In . SVG Version: 6.00 Build 0)  -->
<!DOCTYPE svg PUBLIC "-//W3C//DTD SVG 1.1//EN" "http://www.w3.org/Graphics/SVG/1.1/DTD/svg11.dtd">
<svg version="1.1" id="图层_1" xmlns="http://www.w3.org/2000/svg" xmlns:xlink="http://www.w3.org/1999/xlink" x="0px" y="0px"
	 width="200px" height="200px" viewBox="0 0 200 200" enable-background="new 0 0 200 200" xml:space="preserve">
<path d="M161.008,85.771h-44.346c-2.205-0.027-3.984-1.815-4-4.021V35.337c0.009-1.637-0.636-3.21-1.791-4.371
	c-1.15-1.158-2.718-1.807-4.35-1.8H90.65c-1.632-0.006-3.199,0.642-4.35,1.8c-1.154,1.161-1.797,2.734-1.787,4.371v46.087
	c-0.016,2.4-1.963,4.339-4.363,4.346l-14.5,0.121c-2.393-0.007-4.328-1.953-4.321-4.346l0.121-46.208
	c0.008-1.637-0.637-3.21-1.792-4.371c-1.152-1.159-2.72-1.807-4.354-1.8H39.471c-1.631-0.007-3.197,0.642-4.346,1.8
	c-1.155,1.16-1.8,2.733-1.792,4.371v129.971c0,3.088,2.504,5.525,5.492,5.525h122.346c3.071,0,5.495-2.518,5.495-5.525V91.25
	C166.467,88.163,164.079,85.771,161.008,85.771z M140.25,121.987v12.63c0.008,1.92-0.746,3.762-2.096,5.12
	c-1.348,1.357-3.184,2.116-5.096,2.108h-12.521c-1.912,0.008-3.748-0.752-5.096-2.108c-1.352-1.36-2.105-3.203-2.096-5.12v-12.63
	c-0.01-1.917,0.744-3.76,2.096-5.12c1.348-1.357,3.184-2.115,5.096-2.104h12.521c3.953-0.019,7.173,3.171,7.191,7.124
	C140.25,121.92,140.25,121.954,140.25,121.987z"/>
</svg>
