<?xml version="1.0" standalone="no"?><!DOCTYPE svg PUBLIC "-//W3C//DTD SVG 1.1//EN" "http://www.w3.org/Graphics/SVG/1.1/DTD/svg11.dtd"><svg t="1504749669841" class="icon" style="" viewBox="0 0 1024 1024" version="1.1" xmlns="http://www.w3.org/2000/svg" p-id="4815" xmlns:xlink="http://www.w3.org/1999/xlink" width="200" height="200"><defs><style type="text/css"></style></defs><path d="M517.116 69.379c-243.234 0-440.42 197.186-440.42 440.42 0 243.235 197.186 440.422 440.42 440.422S957.538 753.034 957.538 509.8c0-243.235-197.29-440.421-440.422-440.421z m0 828.962c-214.685 0-388.643-173.958-388.643-388.643 0-214.583 173.958-388.541 388.643-388.541S905.76 295.115 905.76 509.8c-0.103 214.583-174.061 388.54-388.644 388.54zM494.911 677.516z" fill="" p-id="4816"></path><path d="M707.754 358.866L471.171 595.55 340.907 465.287c-11.87-11.87-31.108-11.87-42.978 0-11.87 11.87-11.87 31.108 0 42.978l151.753 151.753c11.87 11.87 31.108 11.87 42.978 0l258.072-258.174c11.87-11.87 11.87-31.108 0-42.978-11.87-11.87-31.108-11.87-42.978 0z" fill="" p-id="4817"></path></svg>