<?xml version="1.0" standalone="no"?><!DOCTYPE svg PUBLIC "-//W3C//DTD SVG 1.1//EN" "http://www.w3.org/Graphics/SVG/1.1/DTD/svg11.dtd"><svg t="1504749772402" class="icon" style="" viewBox="0 0 1024 1024" version="1.1" xmlns="http://www.w3.org/2000/svg" p-id="1682" xmlns:xlink="http://www.w3.org/1999/xlink" width="200" height="200"><defs><style type="text/css"></style></defs><path d="M662.856879 685.897953c-5.911192 0-11.7992-2.192114-16.305945-6.708252L344.806117 377.49525c-8.998899-8.998899-8.998899-23.597201 0-32.597899s23.597201-8.998899 32.597899 0l301.744817 301.694251c8.998699 8.998699 8.998699 23.597201 0 32.597899-4.497551 4.497551-10.392754 6.708252-16.305945 6.708252l0 0L662.856879 685.897753zM361.112062 685.897953c-5.911192 0-11.7992-2.192114-16.305945-6.708252-8.998899-8.998699-8.998899-23.597201 0-32.597899l301.744817-301.694251c8.998699-8.998899 23.597201-8.998899 32.597899 0 9.000698 8.998899 8.998699 23.597201 0 32.597899L377.403816 679.189502c-4.501348 4.497551-10.392954 6.708252-16.305945 6.708252l0 0L361.112062 685.897753zM511.998361 959.070742c-246.499273 0-447.096069-200.54523-447.096069-447.084876 0-246.499273 200.579007-447.059694 447.096069-447.059694 246.499273 0 447.096269 200.573411 447.096269 447.059694C959.09463 758.526311 758.515622 959.070742 511.998361 959.070742L511.998361 959.070742zM511.998361 111.02052c-221.101893 0-400.996324 179.869049-400.996324 400.959749s179.89723 400.996324 400.996324 400.996324c221.101893 0 400.996324-179.898229 400.996324-400.996324C912.994885 290.878376 733.097656 111.02052 511.998361 111.02052 511.998561 111.02052 511.998561 111.02052 511.998361 111.02052z" p-id="1683"></path></svg>