<?xml version="1.0" standalone="no"?><!DOCTYPE svg PUBLIC "-//W3C//DTD SVG 1.1//EN" "http://www.w3.org/Graphics/SVG/1.1/DTD/svg11.dtd"><svg t="1504750084374" class="icon" style="" viewBox="0 0 1024 1024" version="1.1" xmlns="http://www.w3.org/2000/svg" p-id="2487" xmlns:xlink="http://www.w3.org/1999/xlink" width="200" height="200"><defs><style type="text/css"></style></defs><path d="M526.51008 92.51328l0-4.48L526.51008 32.55808c0-4.68992-2.66752-8.97024-6.88128-11.1104-4.20864-2.03776-9.2416-1.73056-13.04064 1.01888L391.38304 105.68192c-3.28704 2.34496-5.13536 6.1184-5.13536 10.09664 0 3.97312 1.95072 7.74656 5.13536 10.09664l115.20512 83.10784c3.79904 2.75456 8.832 3.15392 13.04064 1.01888 4.20864-2.14016 6.88128-6.4256 6.88128-11.12064l0-46.09024 0-9.07264c217.38496 0 394.24 176.85504 394.24 394.24s-176.85504 394.24-394.24 394.24-394.24-176.85504-394.24-394.24c0-114.37056 49.59232-222.94016 136.05888-297.93792 5.62176-4.72064 9.27232-11.70944 9.27232-19.62496 0-14.208-11.52-25.72288-25.72288-25.72288-7.296 0-13.8496 3.06688-18.52928 7.94624-96.7936 84.68992-152.27904 206.76096-152.27904 335.34464 0 245.61664 199.82336 445.44 445.44 445.44 245.61664 0 445.44-199.82336 445.44-445.44C971.95008 292.33664 772.12672 92.51328 526.51008 92.51328z" p-id="2488"></path><path d="M526.51008 549.55008m-153.6 0a30 30 0 1 0 307.2 0 30 30 0 1 0-307.2 0Z" p-id="2489"></path></svg>