<?xml version="1.0" standalone="no"?><!DOCTYPE svg PUBLIC "-//W3C//DTD SVG 1.1//EN" "http://www.w3.org/Graphics/SVG/1.1/DTD/svg11.dtd"><svg t="1504750615370" class="icon" style="" viewBox="0 0 1024 1024" version="1.1" xmlns="http://www.w3.org/2000/svg" p-id="3197" xmlns:xlink="http://www.w3.org/1999/xlink" width="200" height="200"><defs><style type="text/css"></style></defs><path d="M534.252 303.513c-62.146 0-112.722-50.553-112.722-112.701 0-62.121 50.578-112.701 112.722-112.701 62.145 0 112.701 50.553 112.701 112.701 0 62.148-50.553 112.701-112.701 112.701zM294.277 393.006c-56.758 0-102.959-46.177-102.959-102.96s46.201-102.959 102.959-102.959c56.76 0 102.96 46.178 102.96 102.96 0 56.757-46.201 102.96-102.96 102.96zM192.305 625.907c-50.071 0-90.791-40.718-90.791-90.789 0-50.050 40.718-90.766 90.791-90.766 50.050 0 90.766 40.718 90.766 90.766-0.001 50.071-40.719 90.791-90.766 90.789zM294.277 856.647c-42.448 0-76.986-34.536-76.986-76.987 0-42.447 34.56-76.985 76.986-76.985s76.987 34.536 76.987 76.984c0 42.451-34.537 76.988-76.987 76.988zM534.252 944.864c-37.084 0-67.245-30.16-67.245-67.245 0-37.088 30.159-67.245 67.245-67.245s67.245 30.157 67.245 67.245c0 37.086-30.159 67.245-67.245 67.245zM777.858 831.204c-29.917 0-54.282-24.339-54.282-54.282s24.365-54.281 54.282-54.281c29.919 0 54.28 24.338 54.28 54.281 0 29.943-24.363 54.281-54.28 54.281zM877.618 580.067c-24.555 0-44.542-19.987-44.542-44.541 0-24.556 19.987-44.543 44.542-44.543s44.567 19.987 44.567 44.543c0 24.555-20.011 44.541-44.567 44.541zM743.299 293.387c0 19.088 15.473 34.56 34.558 34.56 19.088 0 34.561-15.474 34.561-34.56 0-19.088-15.474-34.561-34.561-34.561-19.086 0-34.558 15.472-34.558 34.561z" p-id="3198"></path></svg>