<?xml version="1.0" encoding="utf-8"?>
<!-- Generator: Adobe Illustrator 22.0.1, SVG Export Plug-In . SVG Version: 6.00 Build 0)  -->
<svg version="1.1" id="图层_1" xmlns="http://www.w3.org/2000/svg" xmlns:xlink="http://www.w3.org/1999/xlink" x="0px" y="0px"
	 viewBox="0 0 200 200" style="enable-background:new 0 0 200 200;" xml:space="preserve">
<path d="M153.1,163.8c1.7,2.2,1.3,5.3-0.9,7c-15.5,12-33.7,18.4-52.8,18.4c-47.7,0-86.5-38.8-86.5-86.5s38.8-86.5,86.5-86.5
	c22.6,0,43.2,9.5,52.8,18.3c2,1.9,2.2,5,0.3,7.1c-1.9,2-5,2.2-7.1,0.3c-6.9-6.3-24.9-15.6-46.1-15.6c-42.2,0-76.5,34.3-76.5,76.5
	c0,42.2,34.3,76.5,76.5,76.5c16.8,0,32.9-5.6,46.7-16.3C148.3,161.2,151.4,161.6,153.1,163.8z M81.8,102.3c0,9.6,7.8,17.4,17.4,17.4
	c9.6,0,17.4-7.8,17.4-17.4c0-9.6-7.8-17.4-17.4-17.4C89.6,84.9,81.8,92.7,81.8,102.3z M128,102.4c0,3.5,2.9,6.4,6.4,6.4
	s6.4-2.9,6.4-6.4c0-3.5-2.9-6.4-6.4-6.4S128,98.9,128,102.4z M169.1,69.2c3.5,0,6.4-2.9,6.4-6.4c0-3.5-2.9-6.4-6.4-6.4
	s-6.4,2.9-6.4,6.4C162.7,66.4,165.6,69.2,169.1,69.2z M169.1,136.3c-3.5,0-6.4,2.9-6.4,6.4s2.9,6.4,6.4,6.4s6.4-2.9,6.4-6.4
	S172.7,136.3,169.1,136.3z M150.8,89.4c0,3.5,2.9,6.4,6.4,6.4s6.4-2.9,6.4-6.4s-2.9-6.4-6.4-6.4S150.8,85.9,150.8,89.4z M180.7,95.3
	c3.5,0,6.4-2.9,6.4-6.4c0-3.5-2.9-6.4-6.4-6.4c-3.5,0-6.4,2.9-6.4,6.4C174.3,92.4,177.1,95.3,180.7,95.3z M157.2,110.9
	c-3.5,0-6.4,2.9-6.4,6.4c0,3.5,2.9,6.4,6.4,6.4s6.4-2.9,6.4-6.4C163.6,113.7,160.8,110.9,157.2,110.9z M180.7,110.3
	c-3.5,0-6.4,2.9-6.4,6.4c0,3.5,2.9,6.4,6.4,6.4c3.5,0,6.4-2.9,6.4-6.4C187.1,113.2,184.2,110.3,180.7,110.3z"/>
</svg>
