<?xml version="1.0" encoding="utf-8"?>
<!-- Generator: Adobe Illustrator 16.0.0, SVG Export Plug-In . SVG Version: 6.00 Build 0)  -->
<!DOCTYPE svg PUBLIC "-//W3C//DTD SVG 1.1//EN" "http://www.w3.org/Graphics/SVG/1.1/DTD/svg11.dtd">
<svg version="1.1" id="图层_1" xmlns="http://www.w3.org/2000/svg" xmlns:xlink="http://www.w3.org/1999/xlink" x="0px" y="0px"
	 width="200px" height="200px" viewBox="0 0 200 200" enable-background="new 0 0 200 200" xml:space="preserve">
<path d="M171.875,121.402c-8.328,4.212-51.453,21.457-60.627,26.106c-9.186,4.649-14.277,4.605-21.53,1.23
	c-7.253-3.371-53.138-21.397-61.406-25.231c-4.129-1.914-6.236-3.539-6.305-5.064v15.329c0,1.529,2.171,3.149,6.305,5.074
	c8.268,3.843,54.161,21.864,61.406,25.231c7.253,3.375,12.349,3.418,21.53-1.234c9.178-4.65,52.299-21.891,60.627-26.112
	c4.229-2.14,6.105-3.808,6.105-5.319l0.004-15.113c-0.004-0.006-0.023-0.006-0.031-0.014
	C177.885,117.732,175.916,119.354,171.875,121.402z M177.949,116.289l0.004-0.004L177.949,116.289z M177.949,91.293
	c-0.074,1.443-2.033,3.059-6.07,5.113c-8.328,4.211-51.453,21.461-60.627,26.111c-9.186,4.648-14.276,4.605-21.53,1.235
	c-7.253-3.368-53.139-21.397-61.406-25.236c-4.129-1.916-6.234-3.541-6.3-5.061v15.329c0,1.529,2.167,3.146,6.3,5.065
	c8.268,3.844,54.153,21.86,61.406,25.23c7.254,3.376,12.348,3.415,21.53-1.229c9.178-4.649,52.299-21.895,60.627-26.11
	c4.234-2.146,6.105-3.813,6.105-5.326l0.004-15.112L177.949,91.293z M177.941,65.374l0.008-0.005
	c0.078-1.538-1.994-2.895-6.166-4.385c-8.111-2.885-50.977-19.472-59.182-22.401c-8.209-2.921-11.549-2.799-21.198,0.563
	C81.758,42.518,36.12,59.918,28,63.007c-4.06,1.556-6.048,2.99-5.979,4.515v15.33c0,1.529,2.171,3.146,6.305,5.065
	c8.267,3.843,54.153,21.872,61.406,25.236c7.253,3.365,12.349,3.409,21.53-1.239c9.178-4.649,52.297-21.896,60.625-26.106
	c4.234-2.149,6.102-3.817,6.102-5.33l0.004-15.104H177.941z M95.039,50.806h0.004l-3.497-6.27l10.907,4.146l10.281-3.275
	l-2.787,6.478l10.479,3.813l-13.514,1.365l-3.029,7.076l-4.888-7.891l-15.603-1.365L95.039,50.806z M48.793,66.924
	c0-4.016,8.653-7.279,19.325-7.279c10.672,0,19.316,3.263,19.316,7.279c0,4.017-8.652,7.28-19.316,7.28
	C57.451,74.204,48.793,70.941,48.793,66.924z M103.088,90.045L77.863,79.88l36.145-5.398L103.088,90.045z M134.109,74.958
	l-21.367-8.21l23.672-9.099l21.389,8.21L134.109,74.958z"/>
</svg>
