<?xml version="1.0" encoding="utf-8"?>
<!-- Generator: Adobe Illustrator 16.0.0, SVG Export Plug-In . SVG Version: 6.00 Build 0)  -->
<!DOCTYPE svg PUBLIC "-//W3C//DTD SVG 1.1//EN" "http://www.w3.org/Graphics/SVG/1.1/DTD/svg11.dtd">
<svg version="1.1" id="图层_1" xmlns="http://www.w3.org/2000/svg" xmlns:xlink="http://www.w3.org/1999/xlink" x="0px" y="0px"
	 width="200px" height="200px" viewBox="1.074 0 200 200" enable-background="new 1.074 0 200 200" xml:space="preserve">
<path fill="#333333" d="M101.075,11.67c-49.105,0-88.916,39.807-88.916,88.912s39.811,88.914,88.916,88.914
	c49.104,0,88.914-39.809,88.914-88.914S150.178,11.67,101.075,11.67z M101.075,178.08c-13.971,0-25.299-9.333-25.299-20.843h50.597
	C126.373,168.745,115.046,178.08,101.075,178.08z M142.859,150.336H59.286v-15.155h83.576v15.155H142.859z M142.56,127.381H59.524
	c-0.276-0.318-0.559-0.632-0.825-0.956c-8.555-10.387-10.569-15.81-12.526-21.336c-0.033-0.182,10.373,2.126,17.752,3.786
	c0,0,3.797,0.879,9.349,1.892c-5.33-6.249-8.495-14.191-8.495-22.31c0-17.823,13.67-33.398,8.738-45.987
	c4.8,0.391,9.934,10.13,10.28,25.358c5.103-7.051,7.239-19.929,7.239-27.825c0-8.174,5.386-17.671,10.774-17.996
	c-4.803,7.916,1.244,14.702,6.62,31.537c2.016,6.324,1.76,16.966,3.315,23.714c0.517-14.017,2.927-34.468,11.818-41.529
	c-3.922,8.892,0.581,20.019,3.661,25.368c4.97,8.63,7.981,15.168,7.981,27.534c0,8.291-3.062,16.098-8.225,22.2
	c5.871-1.103,9.926-2.096,9.926-2.096l19.067-3.72C155.978,105.014,153.206,116.408,142.56,127.381L142.56,127.381z"/>
</svg>
