<svg id="图层_1" data-name="图层 1" xmlns="http://www.w3.org/2000/svg" viewBox="0 0 200 200"><title>ssh</title><path d="M159.1,28.4H39.2A14.7,14.7,0,0,0,24.5,43.1V163a14.7,14.7,0,0,0,14.7,14.7H159.1A14.7,14.7,0,0,0,173.8,163V43.1A14.7,14.7,0,0,0,159.1,28.4ZM39.9,74.5,69.8,62.2,39.9,49V37.4L83.3,58.5V66H83L39.9,86Zm41.6,88.4c-2.9,1.9-7.1,2.9-12.4,2.9a28.3,28.3,0,0,1-12-2.2h-.2v-9.4l.8.6a17.7,17.7,0,0,0,11.1,3.7,10.5,10.5,0,0,0,5.3-1.1,2.8,2.8,0,0,0,1.6-2.4,3.8,3.8,0,0,0-1.3-2.6,31.5,31.5,0,0,0-7.6-3.6c-6.7-2.6-10.1-6.4-10.1-11.4a10,10,0,0,1,4.7-8.6q4.5-3,12-3a32.4,32.4,0,0,1,10.5,1.5h.3v8.8l-.8-.4a17.7,17.7,0,0,0-9.6-2.6,10,10,0,0,0-5,1.1,2.8,2.8,0,0,0-1.7,2.4,3.3,3.3,0,0,0,1.2,2.4c.8.7,3,1.8,6.5,3.2s7.2,3.4,8.8,5.2a10.2,10.2,0,0,1,2.4,6.7A10,10,0,0,1,81.5,162.9Zm5.9-73.8h48.1v7.6H87.4Zm27.4,73.8c-2.9,1.9-7.1,2.9-12.4,2.9s-8.9-.7-12-2.2h-.3v-9.4l.8.6a18.2,18.2,0,0,0,11.2,3.7,10.1,10.1,0,0,0,5.2-1.1,2.6,2.6,0,0,0,1.6-2.4,3.5,3.5,0,0,0-1.3-2.6c-.9-.8-3.4-2.1-7.5-3.6-6.7-2.6-10.1-6.4-10.1-11.4a9.9,9.9,0,0,1,4.6-8.6c3.1-2,7.1-3,12.1-3a31.3,31.3,0,0,1,10.4,1.5h.4v8.8l-.8-.4a17.7,17.7,0,0,0-9.6-2.6,10,10,0,0,0-5,1.1,2.6,2.6,0,0,0-1.7,2.4,3.3,3.3,0,0,0,1.2,2.4c.8.7,3,1.8,6.5,3.2s7.1,3.4,8.7,5.2a9.8,9.8,0,0,1,2.5,6.7A10,10,0,0,1,114.8,162.9Zm42.1,2.2H148V149.6H133.2v15.5h-8.9V126.4h8.9v15.2H148V126.4h8.9Z"/></svg>