<?xml version="1.0" standalone="no"?><!DOCTYPE svg PUBLIC "-//W3C//DTD SVG 1.1//EN" "http://www.w3.org/Graphics/SVG/1.1/DTD/svg11.dtd"><svg t="1546503462835" class="icon" style="" viewBox="0 0 1024 1024" version="1.1" xmlns="http://www.w3.org/2000/svg" p-id="12291" xmlns:xlink="http://www.w3.org/1999/xlink" width="200" height="200"><defs><style type="text/css">@font-face { font-family: yourDictFontAwesome; src: url("chrome-extension://dmckmhkomggmpalekfadjibdcknieljf/lib/fontawesome-webfont.ttf") format("truetype"); font-weight: normal; font-style: normal; }
</style></defs><path d="M925.1 940.3c-0.6-0.3-88.3-55-162.7-100-38.1-22.9-57.2-58.1-51.2-76.5 8.7-27 63.1-33.7 86.1-35.3 6.9-0.4 13.8-0.4 20.6-0.1l3.4 0.1c3.8 0.2 7.1 0.3 10.2 0.3 2.7 0.2 5.4-0.1 8.1-0.8-1.7-6.5-31.5-35.3-76.8-56.2-13.4-6.1-28.1-11.6-42.2-17-22.1-8.3-42.8-16.2-60.1-26.4-12.9-7.6-19.9-20.2-25.1-29.3l-2.5-4.3c-15-25-34.1-64.1-54.3-105.6-35.9-73.3-76.4-156-110.7-197.3-33.7-40.6-99.2-108.3-141.6-128.8-43.3-20.7-69.2-25.8-92-30.2-11.3-2.1-20.6-4.1-30.8-7.1-11.5-3.5-26.7-13.6-44.1-25.1-26.1-17.1-55.4-36.6-75.5-36.6-7.3-0.4-14.2 3.7-17.3 10.4-6.3 11.5-2 19.2 22.5 52.8 9.1 12.5 21.6 29.5 36.7 52.4 11.6 17.4 21.2 48.3 30.5 78.2 7.5 24 14.5 46.5 21.5 59.6 15.6 28.8 22 39.6 25.1 44.8l0.6 1c3.7 6.2 5 8.5 9 17.8 7.9 18.3 0.9 44.2-7.2 74.2-6 22.1-12.6 46.9-13.6 70.4-2.8 65.8 23.3 111.3 32.2 115.8 1.7-3.2 8.9-10.3 9.2-15.6 0.3-7.2 1.2-31.5 2.7-40.7 5.4-33.7 27.2-64.3 36.4-63.4 11.7 1.1 28.7 21.8 32.7 34.5l0.2 0.9c0.6 2.1 1.3 4.1 2.1 6.1l2.5 5.9c9.7 23.5 26 62.6 45 92.7 0 0 50.4 79.1 99.8 119.7C625.2 922 956 959.5 956 959.5l-30.9-19.2zM277.2 226.8c-2 14.8-14.8 24.9-18.7 27.6l-6.4 4.3-2-7.3c-0.1-0.3-5.3-18.9-13.8-28.1-9.2-9.8-21.5-18.2-21.6-18.2l-6.3-4.2 6-4.6c0.5-0.3 11.4-9 25.8-9 11.2 0.1 21.6 5.4 28.4 14.3 6.4 6.5 9.6 15.8 8.6 25.2z" p-id="12292"></path></svg>