<?xml version="1.0" encoding="utf-8"?>
<!-- Generator: Adobe Illustrator 16.0.0, SVG Export Plug-In . SVG Version: 6.00 Build 0)  -->
<!DOCTYPE svg PUBLIC "-//W3C//DTD SVG 1.1//EN" "http://www.w3.org/Graphics/SVG/1.1/DTD/svg11.dtd">
<svg version="1.1" id="图层_1" xmlns="http://www.w3.org/2000/svg" xmlns:xlink="http://www.w3.org/1999/xlink" x="0px" y="0px"
	 width="200px" height="200px" viewBox="0 -29.137 200 200" enable-background="new 0 -29.137 200 200" xml:space="preserve">
<g>
	<path d="M196.2,59.561v0.024c-7.222-3.677-15.58-4.436-23.345-2.112c-1.457-7.987-5.988-15.084-12.619-19.77l-2.5-1.971
		l-2.117,2.375c-4.004,5.403-5.771,12.142-4.938,18.813c0.338,4.574,1.973,8.958,4.711,12.637c-2.154,1.223-4.432,2.224-6.787,2.986
		c-4.521,1.479-9.239,2.24-13.994,2.256H2.65l-0.281,2.956c-1.053,9.826,0.551,19.755,4.644,28.75l1.806,3.581l0.206,0.338
		c12.406,20.486,37.156,31.1,60.9,31.1c45.976,0,80.933-21.94,98.351-64.104c11.64,0.594,23.543-2.758,29.238-13.555l1.449-2.758
		L196.2,59.561z M41.106,112.926c-5.697-0.169-10.177-4.924-10.008-10.621c0.169-5.695,4.924-10.176,10.621-10.008
		c5.575,0.166,10.01,4.729,10.013,10.311C51.642,108.389,46.888,113.006,41.106,112.926z"/>
	<rect x="62.5" y="24.803" width="18.75" height="18.75"/>
	<rect x="87.5" y="49.803" width="18.75" height="18.75"/>
	<rect x="112.5" y="49.803" width="18.75" height="18.75"/>
	<rect x="87.5" y="-0.197" width="18.75" height="18.75"/>
	<rect x="87.5" y="24.803" width="18.75" height="18.75"/>
	<rect x="12.5" y="49.803" width="18.75" height="18.75"/>
	<rect x="62.5" y="49.803" width="18.75" height="18.75"/>
	<path d="M41.106,97.151c-2.999,0.089-5.359,2.59-5.273,5.588c0.086,2.996,2.587,5.357,5.585,5.271
		c2.934-0.085,5.27-2.485,5.275-5.421C46.653,99.544,44.151,97.11,41.106,97.151z"/>
	<rect x="37.5" y="24.803" width="18.75" height="18.75"/>
	<rect x="37.5" y="49.803" width="18.75" height="18.75"/>
</g>
</svg>
