<?xml version="1.0" encoding="utf-8"?>
<!-- Generator: Adobe Illustrator 16.0.0, SVG Export Plug-In . SVG Version: 6.00 Build 0)  -->
<!DOCTYPE svg PUBLIC "-//W3C//DTD SVG 1.1//EN" "http://www.w3.org/Graphics/SVG/1.1/DTD/svg11.dtd">
<svg version="1.1" id="图层_1" xmlns="http://www.w3.org/2000/svg" xmlns:xlink="http://www.w3.org/1999/xlink" x="0px" y="0px"
	 width="100px" height="100px" viewBox="0 0 100 100" enable-background="new 0 0 100 100" xml:space="preserve">
<path d="M84.73,65.226c-1.622,0-3.185,0.253-4.651,0.72L60.137,30.319c3.151-2.81,5.135-6.898,5.135-11.451
	c0-8.47-6.866-15.337-15.337-15.337c-8.47,0-15.337,6.867-15.337,15.337c0,4.671,2.089,8.854,5.382,11.667L20.028,65.957
	c-1.479-0.475-3.055-0.731-4.691-0.731C6.867,65.226,0,72.093,0,80.563S6.867,95.9,15.337,95.9c7.415,0,13.601-5.264,15.027-12.256
	h39.338C71.131,90.637,77.315,95.9,84.73,95.9c8.472,0,15.338-6.866,15.338-15.337S93.202,65.226,84.73,65.226z M45.373,33.516
	c1.441,0.448,2.973,0.689,4.562,0.689c1.705,0,3.343-0.278,4.873-0.791l19.897,35.542c-2.513,2.172-4.312,5.146-5.001,8.524H30.365
	c-0.686-3.364-2.474-6.327-4.97-8.497L45.373,33.516z"/>
</svg>
